<?xml version="1.0" encoding="UTF-8"?>
<svg id="Layer_3" data-name="Layer 3" xmlns="http://www.w3.org/2000/svg" viewBox="0 0 1501 1255.67">
  <defs>
    <style>
      .cls-1 {
        stroke: #90c47b;
      }

      .cls-1, .cls-2 {
        fill: #90c47b;
      }

      .cls-1, .cls-3 {
        stroke-miterlimit: 10;
      }

      .cls-2 {
        stroke-width: 0px;
      }

      .cls-3 {
        fill: #fff;
        stroke: #fff;
      }
    </style>
  </defs>
  <rect class="cls-1" x="523.15" y="258.08" width="58.39" height="592.26" rx="27.81" ry="27.81"/>
  <path class="cls-2" d="M848.48,255.3v208.54c0,15.35-12.46,27.81-27.81,27.81h-2.78c-15.35,0-27.81-12.46-27.81-27.81v-177.96c0-15.35-12.46-27.81-27.81-27.81h-36.15c-15.35,0-27.81,12.46-27.81,27.81v578.36c0,15.35,12.46,27.81,27.81,27.81h36.15c15.35,0,27.81-12.46,27.81-27.81v-122.35h-30.59c-15.35,0-27.81-12.46-27.81-27.81v-2.78c0-15.35,12.46-27.81,27.81-27.81h61.17c15.35,0,27.81,12.46,27.81,27.81v183.52c0,30.72-24.9,55.61-55.61,55.61h-97.32c-30.72,0-55.61-24.9-55.61-55.61V255.3c0-30.72,24.9-55.61,55.61-55.61h97.32c30.72,0,55.61,24.9,55.61,55.61Z"/>
  <path class="cls-1" d="M1057.03,277.54v2.78c0,15.35-12.46,27.81-27.81,27.81h-38.93v547.77c0,15.35-12.46,27.81-27.81,27.81h-2.78c-15.35,0-27.81-12.46-27.81-27.81V308.13h-38.93c-15.35,0-27.81-12.46-27.81-27.81v-2.78c0-15.35,12.46-27.81,27.81-27.81h136.25c15.35,0,27.81,12.46,27.81,27.81Z"/>
  <path class="cls-2" d="M297.53,241.09C433.18,52.95,663.98-39.77,890.96,16.15c109.23,26.54,209.19,88.15,283.41,172.34,7.11,8.06,14.92,17.24,21.57,25.7,6.59,8.3,13.87,18.4,19.99,26.91,0,0-.81.59-.81.59C1051.98,15.3,748.27-60.52,500.16,69.53c-79.23,41.09-148,101.15-201.84,172.17,0,0-.8-.6-.8-.6h0Z"/>
  <rect class="cls-3" x="314.02" y="416.85" width="55.33" height="344.26" rx="15" ry="15"/>
  <rect class="cls-3" x="209.52" y="318.49" width="55.33" height="540.98" rx="15" ry="15"/>
  <rect class="cls-3" x="1143.94" y="416.85" width="55.33" height="344.26" rx="15" ry="15"/>
  <rect class="cls-3" x="1242.3" y="318.49" width="55.33" height="540.98" rx="15" ry="15"/>
  <rect class="cls-3" x="105.01" y="466.03" width="55.33" height="245.9" rx="15" ry="15"/>
  <rect class="cls-3" x="1346.81" y="466.03" width="55.33" height="245.9" rx="15" ry="15"/>
  <rect class="cls-3" x=".5" y="515.21" width="55.33" height="147.54" rx="15" ry="15"/>
  <rect class="cls-3" x="1445.17" y="515.21" width="55.33" height="147.54" rx="15" ry="15"/>
  <g>
    <path class="cls-2" d="M315.72,1081.21c-6.71-6.34-11.28-12.88-13.72-19.63-2.44-6.74-2.82-13.46-1.15-20.14,1.67-6.68,5.26-13.23,10.77-19.63,2.72-3.03,5.69-6.23,8.89-9.63,3.2-3.39,6.31-6.6,9.31-9.64,6.02-5.79,12.35-9.7,19-11.75,6.65-2.05,13.41-2.05,20.28,0,6.87,2.05,13.62,6.22,20.26,12.49,4.91,4.64,8.69,9.45,11.36,14.43,2.67,4.98,4.3,9.9,4.89,14.77.59,4.86.22,9.53-1.13,13.99-1.35,4.46-3.66,8.49-6.93,12.1-.54.72-1.25,1.07-2.13,1.06-.88-.01-1.64-.32-2.29-.94l-10.28-9.72c-.8-.75-1.26-1.56-1.39-2.44-.13-.87.14-1.88.81-3.02,3.35-5.85,4.43-10.97,3.25-15.37-1.18-4.39-3.86-8.56-8.04-12.52-4.83-4.57-9.97-6.87-15.41-6.89-5.44-.02-11.21,2.97-17.29,8.97-5.81,5.71-11.54,11.77-17.18,18.18-5.65,6.41-8.31,12.33-7.98,17.76.33,5.43,2.91,10.43,7.74,15,4.18,3.95,8.52,6.38,13,7.27,4.48.89,9.52-.46,15.11-4.06,1.17-.81,2.18-1.15,3.03-1.03.84.12,1.66.55,2.46,1.3l10.28,9.72c.65.62,1,1.36,1.06,2.24.06.88-.25,1.6-.94,2.19-3.41,3.47-7.31,6-11.69,7.6-4.38,1.6-9.01,2.24-13.9,1.92-4.89-.32-9.9-1.67-15.02-4.05s-10.14-5.89-15.04-10.53Z"/>
    <path class="cls-2" d="M412.75,1156.84c-7.45-4.75-13.07-10.07-16.85-15.95-3.78-5.88-5.54-12.36-5.27-19.43.27-7.07,2.73-14.53,7.39-22.4,2.21-3.65,4.44-7.24,6.68-10.75,2.24-3.52,4.58-7.09,7.01-10.72,5.11-7.46,10.83-12.75,17.19-15.89,6.35-3.13,13.05-4.27,20.11-3.43,7.05.85,14.18,3.56,21.38,8.15,7.2,4.59,12.69,9.92,16.48,15.98,3.79,6.06,5.6,12.64,5.44,19.72-.16,7.08-2.54,14.51-7.14,22.29-2.18,3.79-4.39,7.44-6.63,10.96-2.24,3.52-4.59,7.02-7.05,10.51-5.16,7.54-10.89,12.93-17.18,16.15-6.29,3.23-12.93,4.36-19.9,3.38-6.97-.97-14.19-3.83-21.64-8.58ZM421.95,1142.4c5.44,3.47,10.9,4.69,16.39,3.65,5.49-1.03,10.68-5.11,15.57-12.24,2.51-3.58,4.77-6.93,6.77-10.07s4.06-6.56,6.19-10.27c2.93-4.96,4.55-9.49,4.86-13.59.31-4.1-.47-7.72-2.35-10.86-1.88-3.14-4.62-5.86-8.22-8.16-3.52-2.24-7.1-3.55-10.74-3.93-3.64-.38-7.25.44-10.83,2.45-3.58,2.02-7,5.4-10.26,10.15-2.38,3.55-4.57,6.89-6.57,10.03s-4.13,6.58-6.4,10.31c-4.39,7.44-5.9,13.87-4.52,19.28,1.38,5.41,4.74,9.82,10.1,13.24Z"/>
    <path class="cls-2" d="M491.77,1199.89c-1.03-.38-1.74-1.02-2.15-1.91-.41-.89-.44-1.81-.09-2.74l33.78-90.86c.38-1.02,1.02-1.74,1.91-2.15.89-.41,1.85-.42,2.87-.04l11.03,4.1c1.3.48,2.15,1.2,2.54,2.14.39.94.61,1.63.66,2.07l8.26,60.26,45.9-40.13c.32-.3.94-.68,1.85-1.14.91-.46,2.02-.44,3.32.04l10.89,4.05c1.02.38,1.74,1.02,2.15,1.91.41.89.42,1.85.04,2.87l-33.78,90.86c-.35.93-.97,1.6-1.86,2.01-.89.41-1.85.42-2.88.04l-11.72-4.36c-1.02-.38-1.72-1.01-2.08-1.89-.36-.88-.37-1.78-.02-2.71l22.47-60.43-33.4,30c-.78.66-1.65,1.16-2.62,1.49-.97.33-2.06.27-3.27-.18l-5.72-2.13c-1.3-.49-2.19-1.16-2.66-2.02-.47-.86-.79-1.8-.94-2.81l-5.69-44.53-22.47,60.43c-.35.93-.97,1.6-1.86,2.01-.89.41-1.81.44-2.74.09l-11.72-4.36Z"/>
    <path class="cls-2" d="M629.42,1244.35c-1.09-.14-1.93-.59-2.53-1.37-.6-.78-.84-1.66-.72-2.64l12.14-96.18c.14-1.08.59-1.93,1.37-2.53.78-.6,1.7-.84,2.79-.7l11.67,1.47c1.38.17,2.37.67,2.96,1.5.6.83.97,1.45,1.12,1.87l21.8,56.78,35.52-49.55c.25-.37.76-.88,1.54-1.53.78-.65,1.86-.89,3.24-.72l11.52,1.46c1.08.14,1.93.59,2.53,1.37.6.78.84,1.71.7,2.79l-12.14,96.18c-.12.99-.58,1.78-1.35,2.38-.78.6-1.71.84-2.79.7l-12.41-1.57c-1.08-.14-1.9-.59-2.45-1.36-.55-.77-.77-1.65-.64-2.63l8.07-63.97-25.66,36.83c-.61.82-1.34,1.51-2.21,2.05-.87.54-1.95.73-3.22.57l-6.06-.76c-1.38-.17-2.4-.63-3.06-1.36-.66-.73-1.18-1.57-1.56-2.52l-15.7-42.06-8.07,63.97c-.12.99-.58,1.78-1.35,2.38-.78.6-1.66.84-2.64.72l-12.41-1.57Z"/>
    <path class="cls-2" d="M810.31,1253.93c-8.6.77-16.2-.03-22.79-2.38-6.59-2.35-11.88-6.41-15.89-12.19-4-5.77-6.43-13.41-7.28-22.9l-5.39-60.37c-.1-1.09.17-2.01.8-2.76.63-.75,1.44-1.18,2.43-1.26l13.5-1.2c1.09-.1,1.98.17,2.69.81.7.64,1.1,1.5,1.2,2.58l5.39,60.37c.72,8.11,3.19,13.94,7.39,17.5,4.21,3.56,9.67,5.04,16.39,4.44,6.72-.6,11.81-3.02,15.27-7.27,3.46-4.24,4.83-10.42,4.1-18.53l-5.39-60.37c-.1-1.09.17-2.01.8-2.76.63-.75,1.49-1.18,2.58-1.28l13.35-1.19c1.09-.1,1.98.17,2.69.81.7.64,1.1,1.5,1.2,2.58l5.39,60.37c.85,9.49-.16,17.43-3.03,23.82s-7.31,11.32-13.33,14.79c-6.02,3.48-13.38,5.6-22.08,6.38Z"/>
    <path class="cls-2" d="M899.53,1239.08c-.95.29-1.86.2-2.72-.27-.87-.46-1.44-1.17-1.73-2.12l-27.96-92.82c-.31-1.05-.24-2,.23-2.87.46-.86,1.17-1.44,2.12-1.73l10.98-3.31c1.33-.4,2.4-.38,3.2.05.8.43,1.34.76,1.62.99l60.3,51.51-18.85-62.59c-.31-1.04-.27-1.99.15-2.85.42-.85,1.15-1.43,2.19-1.75l11.98-3.61c1.04-.31,2-.24,2.87.22.86.47,1.46,1.22,1.77,2.27l27.91,92.68c.31,1.05.24,2-.23,2.87-.47.87-1.17,1.44-2.12,1.73l-11.12,3.35c-1.33.4-2.38.35-3.15-.14-.77-.49-1.33-.79-1.67-.9l-59.73-50.12,18.47,61.31c.29.95.2,1.86-.27,2.72-.47.87-1.22,1.46-2.27,1.77l-11.98,3.61Z"/>
    <path class="cls-2" d="M1016.11,1197.83c-.9.42-1.81.47-2.73.14-.92-.33-1.6-.95-2.02-1.85l-41.41-87.81c-.42-.9-.47-1.81-.14-2.73.33-.92.95-1.6,1.85-2.02l12.66-5.97c.99-.47,1.92-.52,2.8-.17.88.35,1.53.98,1.96,1.88l41.41,87.81c.42.9.49,1.8.2,2.7-.29.9-.93,1.59-1.91,2.05l-12.66,5.97Z"/>
    <path class="cls-2" d="M1096.36,1153.85c-.83.55-1.72.72-2.69.52-.96-.2-1.72-.71-2.26-1.54l-45.36-68.73-22.99,15.17c-.83.55-1.72.72-2.69.52-.96-.19-1.72-.71-2.26-1.54l-6.07-9.2c-.6-.91-.8-1.85-.61-2.81.2-.96.71-1.72,1.54-2.26l63.38-41.83c.91-.6,1.85-.8,2.81-.61.96.2,1.75.75,2.35,1.66l6.07,9.2c.55.83.72,1.73.53,2.69-.2.96-.75,1.75-1.66,2.35l-22.87,15.09,45.36,68.73c.55.83.72,1.73.52,2.69-.2.96-.75,1.75-1.66,2.35l-11.43,7.55Z"/>
    <path class="cls-2" d="M1191.72,1078.92c-.71.69-1.56,1.03-2.54,1.01-.98-.01-1.82-.38-2.51-1.09l-23.4-24.18-68.54-20.29c-.21-.07-.45-.18-.73-.33-.28-.14-.52-.32-.73-.54-.62-.64-.93-1.38-.91-2.23.01-.84.3-1.54.88-2.09l9.52-9.22c.86-.83,1.76-1.29,2.71-1.38.95-.09,1.77.01,2.47.3l48.32,13.54-12.05-48.64c-.2-.77-.24-1.64-.12-2.58.12-.95.61-1.83,1.47-2.66l9.42-9.11c.64-.62,1.38-.92,2.23-.91s1.57.34,2.19.98c.21.21.4.45.57.69.17.25.25.51.25.79l18.03,69.17,23.4,24.18c.69.71,1.03,1.56,1.01,2.54-.02.98-.42,1.85-1.2,2.61l-9.74,9.42Z"/>
  </g>
</svg>